<?xml version="1.0" encoding="UTF-8" standalone="no"?>
<!DOCTYPE svg PUBLIC "-//W3C//DTD SVG 1.1//EN" "http://www.w3.org/Graphics/SVG/1.1/DTD/svg11.dtd">
<svg width="100%" height="100%" viewBox="0 0 1920 1400" version="1.1" xmlns="http://www.w3.org/2000/svg" xmlns:xlink="http://www.w3.org/1999/xlink" xml:space="preserve" xmlns:serif="http://www.serif.com/" style="fill-rule:evenodd;clip-rule:evenodd;">
    <g id="modelo-final-clogo" transform="matrix(1,0,0,1,0,160)">
        <g id="Group_1" transform="matrix(1,0,0,1,1560,591)">
            <path id="Rectangle_1" d="M360,48C360,21.508 338.492,0 312,0L48,0C21.508,0 0,21.508 0,48L0,232C0,258.492 21.508,280 48,280L312,280C338.492,280 360,258.492 360,232L360,48Z" style="fill:rgb(247,255,218);"/>
        </g>
        <g transform="matrix(1,0,0,1,471,-123)">
            <g id="Group_5">
                <g id="Group_4">
                    <g id="Group_3">
                        <path id="Path_1" d="M1230.47,865.48C1230.47,387.489 842.985,0 364.994,0C364.818,0 364.643,0.007 364.466,0.007L364.466,1730.95C364.643,1730.95 364.818,1730.96 364.994,1730.96C842.985,1730.96 1230.47,1343.47 1230.47,865.48" style="fill:rgb(226,254,10);fill-rule:nonzero;"/>
                        <path id="Path_2" d="M957.049,900.541C957.049,573.023 691.543,307.517 364.025,307.517L363.663,307.517L363.663,1493.56L364.025,1493.56C691.543,1493.56 957.049,1228.05 957.049,900.533" style="fill:white;fill-rule:nonzero;"/>
                        <g id="Group_2" transform="matrix(1,0,0,1,-351,-5117)">
                            <clipPath id="_clip1">
                                <path d="M1308.05,6017.54C1308.05,5690.02 1042.54,5424.52 715.025,5424.52L714.663,5424.52L714.663,6610.56L715.025,6610.56C1042.54,6610.56 1308.05,6345.05 1308.05,6017.53"/>
                            </clipPath>
                            <g clip-path="url(#_clip1)">
                                <g id="Rectangle_2" transform="matrix(1,0,0,1,920,6176)">
                                    <rect x="0" y="0" width="590" height="430" style="fill:rgb(199,236,95);"/>
                                </g>
                            </g>
                        </g>
                        <g id="Ellipse_1" transform="matrix(1,0,0,1,114.534,650.548)">
                            <circle cx="251.595" cy="251.595" r="251.595" style="fill:none;stroke:black;stroke-width:0.1px;"/>
                        </g>
                        <path id="Path_4" d="M367.129,1210.8C537.598,1210.8 675.79,1072.61 675.79,902.139C675.79,731.67 537.6,593.482 367.129,593.482C196.658,593.482 58.468,731.674 58.468,902.143C58.468,1072.61 196.66,1210.8 367.129,1210.8" style="fill:rgb(0,120,137);fill-rule:nonzero;"/>
                        <path id="Path_5" d="M0,890.324C0,1091.89 163.4,1255.29 364.968,1255.29L365.19,1255.29L365.19,525.359L364.968,525.359C163.4,525.356 0,688.758 0,890.324" style="fill:rgb(123,220,224);fill-rule:nonzero;"/>
                        <path id="Path_6" d="M367.138,1075.28L365.19,1211.57L365.38,1211.57C472.089,1211.57 566.271,1157.59 622.442,1075.29" style="fill:rgb(0,177,187);fill-rule:nonzero;"/>
                        <path id="Path_7" d="M366.129,978.313C406.826,978.313 440.314,944.825 440.314,904.128C440.314,863.431 406.826,829.943 366.129,829.943C325.432,829.943 291.944,863.431 291.944,904.128C291.944,944.825 325.432,978.313 366.129,978.313" style="fill:white;fill-rule:nonzero;"/>
                    </g>
                </g>
            </g>
        </g>
        <g id="Path_33" transform="matrix(1,0,0,1,876,444)">
            <path d="M0.48,0L3.62,0L4.9,-3.14L10.82,-3.14L12.1,0L15.32,0L9.32,-14.1L6.48,-14.1L0.48,0ZM6,-5.86L7.86,-10.4L9.72,-5.86L6,-5.86ZM19.34,0L22.42,0L22.42,-11.16L26.68,-11.16L26.68,-14L15.08,-14L15.08,-11.16L19.34,-11.16L19.34,0ZM29.58,0L32.66,0L32.66,-14L29.58,-14L29.58,0ZM41.02,0.1L43.74,0.1L49.4,-14L46.08,-14L42.42,-4.14L38.76,-14L35.36,-14L41.02,0.1ZM52.1,0L55.18,0L55.18,-14L52.1,-14L52.1,0ZM59.08,0L64.54,0C68.94,0 71.98,-3.06 71.98,-7L71.98,-7.04C71.98,-10.98 68.94,-14 64.54,-14L59.08,-14L59.08,0ZM64.54,-11.22C64.608,-11.223 64.676,-11.225 64.744,-11.225C66.95,-11.225 68.765,-9.41 68.765,-7.204C68.765,-7.136 68.763,-7.068 68.76,-7L68.76,-6.96C68.763,-6.894 68.765,-6.828 68.765,-6.762C68.765,-4.574 66.964,-2.773 64.776,-2.773C64.697,-2.773 64.619,-2.775 64.54,-2.78L62.16,-2.78L62.16,-11.22L64.54,-11.22ZM72.92,0L76.06,0L77.34,-3.14L83.26,-3.14L84.54,0L87.76,0L81.76,-14.1L78.92,-14.1L72.92,0ZM78.44,-5.86L80.3,-10.4L82.16,-5.86L78.44,-5.86ZM90.32,0L95.78,0C100.18,0 103.22,-3.06 103.22,-7L103.22,-7.04C103.22,-10.98 100.18,-14 95.78,-14L90.32,-14L90.32,0ZM95.78,-11.22C95.848,-11.223 95.916,-11.225 95.984,-11.225C98.19,-11.225 100.005,-9.41 100.005,-7.204C100.005,-7.136 100.003,-7.068 100,-7L100,-6.96C100.003,-6.894 100.005,-6.828 100.005,-6.762C100.005,-4.574 98.204,-2.773 96.016,-2.773C95.937,-2.773 95.859,-2.775 95.78,-2.78L93.4,-2.78L93.4,-11.22L95.78,-11.22ZM106.36,0L117.02,0L117.02,-2.74L109.42,-2.74L109.42,-5.68L116.02,-5.68L116.02,-8.42L109.42,-8.42L109.42,-11.26L116.92,-11.26L116.92,-14L106.36,-14L106.36,0ZM125.14,0.2C128.16,0.2 130.28,-1.36 130.28,-4.14L130.28,-4.18C130.28,-6.62 128.68,-7.64 125.84,-8.38C123.42,-9 122.82,-9.3 122.82,-10.22L122.82,-10.26C122.82,-10.94 123.44,-11.48 124.62,-11.48C125.945,-11.398 127.214,-10.917 128.26,-10.1L129.86,-12.42C128.387,-13.601 126.547,-14.231 124.66,-14.2C121.8,-14.2 119.76,-12.52 119.76,-9.98L119.76,-9.94C119.76,-7.16 121.58,-6.38 124.4,-5.66C126.74,-5.06 127.22,-4.66 127.22,-3.88L127.22,-3.84C127.22,-3.02 126.46,-2.52 125.2,-2.52C123.647,-2.562 122.162,-3.167 121.02,-4.22L119.2,-2.04C120.837,-0.59 122.953,0.208 125.14,0.2ZM132.68,-4.74L138.84,-4.74L138.84,-7.66L132.68,-7.66L132.68,-4.74ZM148.48,0.24C150.674,0.332 152.793,-0.591 154.22,-2.26L152.26,-4.24C151.314,-3.207 149.98,-2.613 148.58,-2.6C146.334,-2.649 144.513,-4.51 144.513,-6.757C144.513,-6.838 144.515,-6.919 144.52,-7L144.52,-7.04C144.516,-7.111 144.515,-7.182 144.515,-7.253C144.515,-9.497 146.336,-11.355 148.58,-11.4C149.934,-11.363 151.22,-10.795 152.16,-9.82L154.12,-12.08C152.675,-13.556 150.663,-14.343 148.6,-14.24C148.538,-14.242 148.476,-14.242 148.414,-14.242C144.511,-14.242 141.299,-11.031 141.299,-7.127C141.299,-7.085 141.299,-7.042 141.3,-7L141.3,-6.96C141.299,-6.915 141.299,-6.871 141.299,-6.826C141.299,-2.949 144.489,0.241 148.366,0.241C148.404,0.241 148.442,0.241 148.48,0.24ZM157.08,0L160.16,0L160.16,-5.62L165.84,-5.62L165.84,0L168.92,0L168.92,-14L165.84,-14L165.84,-8.46L160.16,-8.46L160.16,-14L157.08,-14L157.08,0ZM171.48,0L174.62,0L175.9,-3.14L181.82,-3.14L183.1,0L186.32,0L180.32,-14.1L177.48,-14.1L171.48,0ZM177,-5.86L178.86,-10.4L180.72,-5.86L177,-5.86ZM191.34,0.1L194.06,0.1L199.72,-14L196.4,-14L192.74,-4.14L189.08,-14L185.68,-14L191.34,0.1ZM202.28,0L212.94,0L212.94,-2.74L205.34,-2.74L205.34,-5.68L211.94,-5.68L211.94,-8.42L205.34,-8.42L205.34,-11.26L212.84,-11.26L212.84,-14L202.28,-14L202.28,0Z" style="fill:rgb(0,59,78);fill-rule:nonzero;"/>
        </g>
        <g id="Path_32" transform="matrix(1,0,0,1,378,475)">
            <path d="M6.21,2.538L6.8,1.62C4.068,-0.126 2.628,-2.286 2.628,-5.166C2.628,-8.046 4.068,-10.206 6.804,-11.952L6.21,-12.87C3.01,-11.07 1.224,-8.478 1.224,-5.17C1.224,-1.862 3.006,0.738 6.21,2.538ZM9.72,0L11.106,0L11.106,-5.328C11.102,-5.387 11.1,-5.447 11.1,-5.507C11.1,-7.009 12.336,-8.245 13.838,-8.245C13.859,-8.245 13.879,-8.244 13.9,-8.244C15.538,-8.244 16.474,-7.164 16.474,-5.436L16.474,0L17.86,0L17.86,-5.778C17.87,-5.887 17.876,-5.996 17.876,-6.105C17.876,-7.97 16.341,-9.505 14.476,-9.505C14.414,-9.505 14.353,-9.503 14.292,-9.5C12.975,-9.538 11.743,-8.835 11.106,-7.682L11.106,-9.302L9.72,-9.302L9.72,0ZM25.416,0.216L25.466,0.216C28.117,0.216 30.298,-1.965 30.298,-4.616C30.298,-4.625 30.298,-4.635 30.298,-4.644L30.298,-4.68C30.298,-4.692 30.298,-4.705 30.298,-4.717C30.298,-7.341 28.139,-9.5 25.515,-9.5C25.494,-9.5 25.473,-9.5 25.452,-9.5C25.438,-9.5 25.423,-9.5 25.409,-9.5C22.766,-9.5 20.592,-7.326 20.592,-4.683C20.592,-4.669 20.592,-4.654 20.592,-4.64L20.592,-4.604C20.592,-4.586 20.592,-4.568 20.592,-4.551C20.592,-1.936 22.744,0.216 25.359,0.216C25.378,0.216 25.397,0.216 25.416,0.216ZM25.456,-1.026C23.56,-1.054 22.016,-2.621 22.016,-4.517C22.016,-4.559 22.016,-4.602 22.018,-4.644L22.018,-4.68C22.015,-4.735 22.014,-4.79 22.014,-4.845C22.014,-6.718 23.545,-8.263 25.418,-8.28C27.326,-8.245 28.876,-6.666 28.876,-4.759C28.876,-4.72 28.875,-4.682 28.874,-4.644L28.874,-4.608C28.876,-4.559 28.877,-4.509 28.877,-4.46C28.877,-2.579 27.333,-1.031 25.452,-1.026L25.456,-1.026ZM36.234,0.18C38.088,0.18 39.546,-0.846 39.546,-2.61L39.546,-2.646C39.546,-4.32 37.998,-4.878 36.558,-5.31C35.316,-5.688 34.164,-6.03 34.164,-6.91L34.164,-6.946C34.164,-7.72 34.864,-8.296 35.964,-8.296C36.948,-8.26 37.902,-7.948 38.718,-7.396L39.348,-8.44C38.35,-9.089 37.19,-9.445 36,-9.468C34.164,-9.468 32.832,-8.406 32.832,-6.804L32.832,-6.768C32.832,-5.058 34.452,-4.554 35.91,-4.14C37.134,-3.798 38.232,-3.44 38.232,-2.502L38.232,-2.466C38.232,-1.566 37.422,-0.99 36.306,-0.99C35.132,-1.028 34.001,-1.445 33.084,-2.178L32.384,-1.188C33.483,-0.324 34.836,0.157 36.234,0.18ZM45.378,0.18C47.232,0.18 48.69,-0.846 48.69,-2.61L48.69,-2.646C48.69,-4.32 47.142,-4.878 45.702,-5.31C44.46,-5.688 43.308,-6.03 43.308,-6.91L43.308,-6.946C43.308,-7.72 44.008,-8.296 45.108,-8.296C46.092,-8.26 47.046,-7.948 47.862,-7.396L48.492,-8.44C47.494,-9.088 46.334,-9.444 45.144,-9.466C43.308,-9.466 41.976,-8.404 41.976,-6.802L41.976,-6.766C41.976,-5.056 43.596,-4.552 45.054,-4.138C46.278,-3.796 47.376,-3.438 47.376,-2.5L47.376,-2.464C47.376,-1.564 46.566,-0.988 45.45,-0.988C44.276,-1.026 43.145,-1.443 42.228,-2.176L41.528,-1.186C42.627,-0.322 43.98,0.157 45.378,0.18ZM55.872,0.216C55.887,0.216 55.903,0.216 55.918,0.216C58.569,0.216 60.75,-1.965 60.75,-4.616C60.75,-4.625 60.75,-4.635 60.75,-4.644L60.75,-4.68C60.75,-4.692 60.75,-4.705 60.75,-4.717C60.75,-7.341 58.591,-9.5 55.967,-9.5C55.947,-9.5 55.928,-9.5 55.908,-9.5C55.894,-9.5 55.879,-9.5 55.865,-9.5C53.222,-9.5 51.048,-7.326 51.048,-4.683C51.048,-4.669 51.048,-4.654 51.048,-4.64L51.048,-4.604C51.048,-4.586 51.048,-4.568 51.048,-4.551C51.048,-1.936 53.2,0.216 55.815,0.216C55.834,0.216 55.853,0.216 55.872,0.216ZM55.908,-1.026C54.012,-1.054 52.468,-2.621 52.468,-4.517C52.468,-4.559 52.468,-4.602 52.47,-4.644L52.47,-4.68C52.467,-4.735 52.466,-4.79 52.466,-4.845C52.466,-6.718 53.997,-8.263 55.87,-8.28C57.778,-8.245 59.328,-6.666 59.328,-4.759C59.328,-4.72 59.327,-4.682 59.326,-4.644L59.326,-4.608C59.328,-4.559 59.329,-4.509 59.329,-4.46C59.329,-2.581 57.787,-1.033 55.908,-1.026ZM66.69,0.18C68.544,0.18 70,-0.846 70,-2.61L70,-2.646C70,-4.32 68.452,-4.878 67.012,-5.31C65.77,-5.688 64.618,-6.03 64.618,-6.91L64.618,-6.946C64.618,-7.72 65.318,-8.296 66.418,-8.296C67.402,-8.26 68.356,-7.948 69.172,-7.396L69.802,-8.44C68.804,-9.088 67.644,-9.444 66.454,-9.466C64.618,-9.466 63.286,-8.404 63.286,-6.802L63.286,-6.766C63.286,-5.056 64.906,-4.552 66.364,-4.138C67.588,-3.796 68.686,-3.438 68.686,-2.5L68.686,-2.464C68.686,-1.564 67.876,-0.988 66.76,-0.988C65.587,-1.027 64.457,-1.444 63.54,-2.178L62.84,-1.188C63.939,-0.324 65.292,0.157 66.69,0.18ZM78.732,-11.34L80.316,-11.34L80.316,-12.87L78.732,-12.87L78.732,-11.34ZM78.822,0L80.208,0L80.208,-9.306L78.822,-9.306L78.822,0ZM83.79,0L85.176,0L85.176,-5.31C85.169,-5.388 85.166,-5.467 85.166,-5.546C85.166,-6.99 86.325,-8.192 87.768,-8.244C89.244,-8.244 90.162,-7.218 90.162,-5.472L90.162,0L91.548,0L91.548,-5.364C91.537,-5.459 91.532,-5.555 91.532,-5.651C91.532,-7.064 92.687,-8.23 94.1,-8.244C95.612,-8.244 96.512,-7.236 96.512,-5.436L96.512,0L97.9,0L97.9,-5.76C97.9,-8.06 96.586,-9.504 94.444,-9.504C93.099,-9.526 91.843,-8.815 91.17,-7.65C90.641,-8.812 89.458,-9.545 88.182,-9.5C86.934,-9.51 85.778,-8.833 85.176,-7.74L85.176,-9.306L83.79,-9.306L83.79,0ZM101.268,2.88L102.654,2.88L102.654,-1.782C103.419,-0.552 104.769,0.199 106.218,0.2C108.679,0.145 110.673,-1.894 110.673,-4.355C110.673,-4.451 110.67,-4.546 110.664,-4.642L110.664,-4.68C110.67,-4.774 110.673,-4.868 110.673,-4.962C110.673,-7.42 108.676,-9.454 106.218,-9.5C104.751,-9.484 103.395,-8.696 102.654,-7.43L102.654,-9.306L101.268,-9.306L101.268,2.88ZM105.968,-1.044C104.105,-1.095 102.599,-2.642 102.599,-4.506C102.599,-4.552 102.6,-4.598 102.602,-4.644L102.602,-4.68C102.601,-4.718 102.6,-4.756 102.6,-4.794C102.6,-6.659 104.104,-8.207 105.968,-8.262C107.781,-8.226 109.253,-6.725 109.253,-4.912C109.253,-4.828 109.25,-4.745 109.244,-4.662L109.244,-4.626C109.253,-4.527 109.258,-4.427 109.258,-4.328C109.258,-2.526 107.775,-1.044 105.974,-1.044C105.971,-1.044 105.969,-1.044 105.966,-1.044L105.968,-1.044ZM116.352,0.2C117.665,0.241 118.92,-0.356 119.718,-1.4L119.718,0L121.05,0L121.05,-5.688C121.115,-6.686 120.771,-7.668 120.096,-8.406C119.274,-9.139 118.189,-9.51 117.09,-9.432C115.918,-9.435 114.76,-9.171 113.706,-8.658L114.12,-7.524C114.998,-7.963 115.964,-8.197 116.946,-8.208C118.692,-8.208 119.718,-7.344 119.718,-5.67L119.718,-5.346C118.789,-5.619 117.824,-5.754 116.856,-5.746C114.498,-5.746 112.878,-4.702 112.878,-2.74L112.878,-2.7C112.878,-0.792 114.624,0.2 116.352,0.2ZM116.622,-0.9C115.362,-0.9 114.282,-1.584 114.282,-2.754L114.282,-2.79C114.282,-3.96 115.254,-4.716 117,-4.716C117.926,-4.714 118.848,-4.579 119.736,-4.316L119.736,-3.416C119.736,-1.944 118.332,-0.9 116.622,-0.9ZM128.556,0.216C130.031,0.232 131.434,-0.432 132.356,-1.584L131.474,-2.412C130.77,-1.563 129.733,-1.058 128.63,-1.026C126.743,-1.055 125.207,-2.616 125.207,-4.503C125.207,-4.55 125.208,-4.597 125.21,-4.644L125.21,-4.68C125.207,-4.736 125.206,-4.792 125.206,-4.847C125.206,-6.694 126.695,-8.226 128.54,-8.28C129.641,-8.25 130.675,-7.738 131.366,-6.88L132.284,-7.852C131.348,-8.927 129.981,-9.532 128.556,-9.5C125.934,-9.484 123.786,-7.322 123.786,-4.7C123.786,-4.68 123.786,-4.66 123.786,-4.64L123.786,-4.604C123.786,-4.59 123.786,-4.576 123.786,-4.562C123.786,-1.944 125.938,0.212 128.556,0.216ZM138.114,0.162C138.697,0.171 139.272,0.033 139.788,-0.238L139.788,-1.422C139.371,-1.207 138.908,-1.096 138.438,-1.098C138.371,-1.088 138.304,-1.083 138.236,-1.083C137.481,-1.083 136.859,-1.705 136.859,-2.46C136.859,-2.522 136.864,-2.584 136.872,-2.646L136.872,-8.082L139.824,-8.082L139.824,-9.306L136.872,-9.306L136.872,-12.114L135.486,-12.114L135.486,-9.306L134.186,-9.306L134.186,-8.082L135.486,-8.082L135.486,-2.466C135.475,-2.375 135.47,-2.283 135.47,-2.191C135.47,-0.891 136.539,0.178 137.839,0.178C137.931,0.178 138.023,0.173 138.114,0.162ZM146.61,0.216L146.66,0.216C149.311,0.216 151.492,-1.965 151.492,-4.616C151.492,-4.625 151.492,-4.635 151.492,-4.644L151.492,-4.68C151.492,-4.692 151.492,-4.705 151.492,-4.717C151.492,-7.341 149.333,-9.5 146.709,-9.5C146.688,-9.5 146.667,-9.5 146.646,-9.5C146.632,-9.5 146.617,-9.5 146.603,-9.5C143.96,-9.5 141.786,-7.326 141.786,-4.683C141.786,-4.669 141.786,-4.654 141.786,-4.64L141.786,-4.604C141.786,-4.586 141.786,-4.568 141.786,-4.551C141.786,-1.936 143.938,0.216 146.553,0.216C146.572,0.216 146.591,0.216 146.61,0.216ZM146.65,-1.026C144.754,-1.054 143.21,-2.621 143.21,-4.517C143.21,-4.559 143.21,-4.602 143.212,-4.644L143.212,-4.68C143.209,-4.735 143.208,-4.79 143.208,-4.845C143.208,-6.718 144.739,-8.263 146.612,-8.28C148.52,-8.245 150.07,-6.666 150.07,-4.759C150.07,-4.72 150.069,-4.682 150.068,-4.644L150.068,-4.608C150.07,-4.559 150.071,-4.509 150.071,-4.46C150.071,-2.579 148.527,-1.031 146.646,-1.026L146.65,-1.026ZM157.428,0.18C159.282,0.18 160.74,-0.846 160.74,-2.61L160.74,-2.646C160.74,-4.32 159.192,-4.878 157.752,-5.31C156.51,-5.688 155.358,-6.03 155.358,-6.91L155.358,-6.946C155.358,-7.72 156.058,-8.296 157.158,-8.296C158.142,-8.26 159.096,-7.948 159.912,-7.396L160.542,-8.44C159.544,-9.088 158.384,-9.444 157.194,-9.466C155.358,-9.466 154.026,-8.404 154.026,-6.802L154.026,-6.766C154.026,-5.056 155.646,-4.552 157.104,-4.138C158.328,-3.796 159.426,-3.438 159.426,-2.5L159.426,-2.464C159.426,-1.564 158.616,-0.988 157.5,-0.988C156.326,-1.026 155.195,-1.443 154.278,-2.176L153.578,-1.186C154.677,-0.322 156.03,0.157 157.428,0.18ZM163.368,2.538C166.568,0.738 168.354,-1.854 168.354,-5.162C168.354,-8.47 166.572,-11.062 163.368,-12.862L162.774,-11.944C165.51,-10.198 166.95,-8.038 166.95,-5.158C166.95,-2.278 165.51,-0.118 162.774,1.628L163.368,2.538Z" style="fill:rgb(0,59,78);fill-rule:nonzero;"/>
        </g>
        <g id="Path_31" transform="matrix(1,0,0,1,347,440)">
            <path d="M8.24,0.24C10.434,0.332 12.553,-0.591 13.98,-2.26L12.02,-4.24C11.074,-3.207 9.74,-2.613 8.34,-2.6C6.094,-2.649 4.273,-4.51 4.273,-6.757C4.273,-6.838 4.275,-6.919 4.28,-7L4.28,-7.04C4.276,-7.111 4.275,-7.182 4.275,-7.253C4.275,-9.497 6.096,-11.355 8.34,-11.4C9.694,-11.363 10.98,-10.795 11.92,-9.82L13.88,-12.08C12.435,-13.556 10.423,-14.343 8.36,-14.24C8.298,-14.242 8.236,-14.242 8.174,-14.242C4.271,-14.242 1.059,-11.031 1.059,-7.127C1.059,-7.085 1.059,-7.042 1.06,-7L1.06,-6.96C1.059,-6.915 1.059,-6.871 1.059,-6.826C1.059,-2.949 4.249,0.241 8.126,0.241C8.164,0.241 8.202,0.241 8.24,0.24ZM15.64,0L18.78,0L20.06,-3.14L25.98,-3.14L27.26,0L30.48,0L24.48,-14.1L21.64,-14.1L15.64,0ZM21.16,-5.86L23.02,-10.4L24.88,-5.86L21.16,-5.86ZM33.04,0L36.12,0L36.12,-4.2L38.46,-4.2C41.6,-4.2 44.12,-5.88 44.12,-9.12L44.12,-9.16C44.12,-12.02 42.1,-14 38.76,-14L33.04,-14L33.04,0ZM36.12,-6.94L36.12,-11.22L38.5,-11.22C40.04,-11.22 41,-10.48 41,-9.1L41,-9.06C40.983,-7.882 40.01,-6.923 38.832,-6.923C38.741,-6.923 38.65,-6.929 38.56,-6.94L36.12,-6.94ZM46.94,0L50.02,0L50.02,-14L46.94,-14L46.94,0ZM57.18,0L60.26,0L60.26,-11.16L64.52,-11.16L64.52,-14L52.92,-14L52.92,-11.16L57.18,-11.16L57.18,0ZM64.28,0L67.42,0L68.7,-3.14L74.62,-3.14L75.9,0L79.12,0L73.12,-14.1L70.28,-14.1L64.28,0ZM69.8,-5.86L71.66,-10.4L73.52,-5.86L69.8,-5.86ZM81.82,0L84.9,0L84.9,-14L81.82,-14L81.82,0ZM93.78,0.2C96.8,0.2 98.92,-1.36 98.92,-4.14L98.92,-4.18C98.92,-6.62 97.32,-7.64 94.48,-8.38C92.06,-9 91.46,-9.3 91.46,-10.22L91.46,-10.26C91.46,-10.94 92.08,-11.48 93.26,-11.48C94.585,-11.398 95.854,-10.917 96.9,-10.1L98.5,-12.42C97.027,-13.601 95.187,-14.231 93.3,-14.2C90.44,-14.2 88.4,-12.52 88.4,-9.98L88.4,-9.94C88.4,-7.16 90.22,-6.38 93.04,-5.66C95.38,-5.06 95.86,-4.66 95.86,-3.88L95.86,-3.84C95.86,-3.02 95.1,-2.52 93.84,-2.52C92.287,-2.562 90.802,-3.167 89.66,-4.22L87.84,-2.04C89.477,-0.59 91.593,0.208 93.78,0.2ZM107.2,0L110.34,0L111.62,-3.14L117.54,-3.14L118.82,0L122.04,0L116.04,-14.1L113.2,-14.1L107.2,0ZM112.72,-5.86L114.58,-10.4L116.44,-5.86L112.72,-5.86ZM130.26,0.24C132.454,0.332 134.573,-0.591 136,-2.26L134.04,-4.24C133.094,-3.207 131.76,-2.613 130.36,-2.6C128.114,-2.649 126.293,-4.51 126.293,-6.757C126.293,-6.838 126.295,-6.919 126.3,-7L126.3,-7.04C126.296,-7.111 126.295,-7.182 126.295,-7.253C126.295,-9.497 128.116,-11.355 130.36,-11.4C131.714,-11.363 133,-10.795 133.94,-9.82L135.9,-12.08C134.455,-13.556 132.443,-14.343 130.38,-14.24C130.318,-14.242 130.256,-14.242 130.194,-14.242C126.291,-14.242 123.079,-11.031 123.079,-7.127C123.079,-7.085 123.079,-7.042 123.08,-7L123.08,-6.96C123.079,-6.915 123.079,-6.871 123.079,-6.826C123.079,-2.949 126.269,0.241 130.146,0.241C130.184,0.241 130.222,0.241 130.26,0.24ZM138.86,0L149.52,0L149.52,-2.74L141.92,-2.74L141.92,-5.68L148.52,-5.68L148.52,-8.42L141.92,-8.42L141.92,-11.26L149.42,-11.26L149.42,-14L138.86,-14L138.86,0ZM157.64,0.2C160.66,0.2 162.78,-1.36 162.78,-4.14L162.78,-4.18C162.78,-6.62 161.18,-7.64 158.34,-8.38C155.92,-9 155.32,-9.3 155.32,-10.22L155.32,-10.26C155.32,-10.94 155.94,-11.48 157.12,-11.48C158.445,-11.398 159.714,-10.917 160.76,-10.1L162.36,-12.42C160.887,-13.601 159.047,-14.231 157.16,-14.2C154.3,-14.2 152.26,-12.52 152.26,-9.98L152.26,-9.94C152.26,-7.16 154.08,-6.38 156.9,-5.66C159.24,-5.06 159.72,-4.66 159.72,-3.88L159.72,-3.84C159.72,-3.02 158.96,-2.52 157.7,-2.52C156.147,-2.562 154.662,-3.167 153.52,-4.22L151.7,-2.04C153.337,-0.59 155.453,0.208 157.64,0.2ZM170.64,0.2C173.66,0.2 175.78,-1.36 175.78,-4.14L175.78,-4.18C175.78,-6.62 174.18,-7.64 171.34,-8.38C168.92,-9 168.32,-9.3 168.32,-10.22L168.32,-10.26C168.32,-10.94 168.94,-11.48 170.12,-11.48C171.445,-11.398 172.714,-10.917 173.76,-10.1L175.36,-12.42C173.887,-13.601 172.047,-14.231 170.16,-14.2C167.3,-14.2 165.26,-12.52 165.26,-9.98L165.26,-9.94C165.26,-7.16 167.08,-6.38 169.9,-5.66C172.24,-5.06 172.72,-4.66 172.72,-3.88L172.72,-3.84C172.72,-3.02 171.96,-2.52 170.7,-2.52C169.147,-2.562 167.662,-3.167 166.52,-4.22L164.7,-2.04C166.337,-0.59 168.453,0.208 170.64,0.2ZM177.36,0L180.5,0L181.78,-3.14L187.7,-3.14L188.98,0L192.2,0L186.2,-14.1L183.36,-14.1L177.36,0ZM182.88,-5.86L184.74,-10.4L186.6,-5.86L182.88,-5.86ZM194.76,0L200.22,0C204.62,0 207.66,-3.06 207.66,-7L207.66,-7.04C207.66,-10.98 204.62,-14 200.22,-14L194.76,-14L194.76,0ZM200.22,-11.22C200.288,-11.223 200.356,-11.225 200.424,-11.225C202.63,-11.225 204.445,-9.41 204.445,-7.204C204.445,-7.136 204.443,-7.068 204.44,-7L204.44,-6.96C204.443,-6.894 204.445,-6.828 204.445,-6.762C204.445,-4.574 202.644,-2.773 200.456,-2.773C200.377,-2.773 200.299,-2.775 200.22,-2.78L197.84,-2.78L197.84,-11.22L200.22,-11.22ZM217.6,0.24C217.673,0.242 217.747,0.243 217.82,0.243C221.792,0.243 225.06,-3.025 225.06,-6.997L225.06,-7.04C225.06,-7.05 225.06,-7.061 225.06,-7.071C225.06,-11.006 221.822,-14.244 217.887,-14.244C217.805,-14.244 217.722,-14.243 217.64,-14.24C217.567,-14.242 217.493,-14.243 217.42,-14.243C213.448,-14.243 210.18,-10.975 210.18,-7.003L210.18,-6.96C210.18,-6.95 210.18,-6.939 210.18,-6.929C210.18,-2.994 213.418,0.244 217.353,0.244C217.435,0.244 217.518,0.243 217.6,0.24ZM217.64,-2.6C215.311,-2.606 213.397,-4.524 213.397,-6.853C213.397,-6.902 213.398,-6.951 213.4,-7L213.4,-7.04C213.398,-7.098 213.396,-7.155 213.396,-7.213C213.396,-9.51 215.287,-11.4 217.583,-11.4C217.589,-11.4 217.594,-11.4 217.6,-11.4C219.929,-11.394 221.843,-9.476 221.843,-7.147C221.843,-7.098 221.842,-7.049 221.84,-7L221.84,-6.96C221.842,-6.902 221.844,-6.845 221.844,-6.787C221.844,-4.49 219.953,-2.6 217.657,-2.6C217.651,-2.6 217.646,-2.6 217.64,-2.6ZM233.08,0.2C236.1,0.2 238.22,-1.36 238.22,-4.14L238.22,-4.18C238.22,-6.62 236.62,-7.64 233.78,-8.38C231.36,-9 230.76,-9.3 230.76,-10.22L230.76,-10.26C230.76,-10.94 231.38,-11.48 232.56,-11.48C233.885,-11.398 235.154,-10.917 236.2,-10.1L237.8,-12.42C236.327,-13.601 234.487,-14.231 232.6,-14.2C229.74,-14.2 227.7,-12.52 227.7,-9.98L227.7,-9.94C227.7,-7.16 229.52,-6.38 232.34,-5.66C234.68,-5.06 235.16,-4.66 235.16,-3.88L235.16,-3.84C235.16,-3.02 234.4,-2.52 233.14,-2.52C231.587,-2.562 230.102,-3.167 228.96,-4.22L227.14,-2.04C228.777,-0.59 230.893,0.208 233.08,0.2Z" style="fill:rgb(0,59,78);fill-rule:nonzero;"/>
        </g>
        <g id="Path_8" transform="matrix(1,0,0,1,626.581,568.07)">
            <path d="M209.218,-96.57L-33.582,-96.557C-33.856,-96.557 -34.082,-96.331 -34.082,-96.057C-34.082,-95.783 -33.856,-95.557 -33.582,-95.557L208.718,-95.57L208.718,123.882C159.797,124.239 121.005,163.895 120.918,212.882C120.917,261.518 160.783,301.609 209.418,301.882L208.749,503.437C208.749,503.711 208.975,503.937 209.249,503.937C209.523,503.937 209.749,503.711 209.749,503.437L210.418,301.387L209.918,300.887C161.667,300.824 121.981,261.138 121.918,212.887C121.918,164.278 160.618,124.887 209.218,124.887L209.718,124.387L209.718,-96.07L209.218,-96.57Z" style="fill:rgb(0,120,137);fill-rule:nonzero;stroke:rgb(0,59,78);stroke-width:2px;"/>
        </g>
        <g id="Path_9" transform="matrix(1,0,0,1,8901,2832)">
            <path d="M-8321,-2340C-8323.67,-2339.99 -8326.32,-2340.53 -8328.78,-2341.57C-8331.16,-2342.58 -8333.32,-2344.03 -8335.14,-2345.86C-8336.97,-2347.68 -8338.42,-2349.84 -8339.43,-2352.22C-8340.47,-2354.68 -8341.01,-2357.33 -8341,-2360C-8341.01,-2362.67 -8340.47,-2365.32 -8339.43,-2367.78C-8338.42,-2370.16 -8336.97,-2372.32 -8335.14,-2374.14C-8333.32,-2375.97 -8331.16,-2377.43 -8328.78,-2378.43C-8326.32,-2379.47 -8323.67,-2380.01 -8321,-2380C-8318.33,-2380.01 -8315.68,-2379.47 -8313.22,-2378.43C-8310.84,-2377.42 -8308.68,-2375.97 -8306.86,-2374.14C-8305.03,-2372.32 -8303.58,-2370.16 -8302.57,-2367.78C-8301.53,-2365.32 -8301,-2362.67 -8301,-2360C-8300.99,-2357.33 -8301.53,-2354.68 -8302.57,-2352.22C-8303.58,-2349.84 -8305.03,-2347.68 -8306.86,-2345.86C-8308.68,-2344.03 -8310.84,-2342.58 -8313.21,-2341.57C-8315.68,-2340.53 -8318.33,-2339.99 -8321,-2340ZM-8321,-2370.5C-8326.76,-2370.49 -8331.5,-2365.76 -8331.5,-2360C-8331.5,-2354.24 -8326.76,-2349.51 -8321,-2349.5C-8315.24,-2349.51 -8310.51,-2354.24 -8310.5,-2360C-8310.51,-2365.76 -8315.24,-2370.49 -8321,-2370.5Z" style="fill:url(#_Linear2);fill-rule:nonzero;"/>
        </g>
        <g id="Path_10" transform="matrix(1,0,0,1,840,537.914)">
            <path d="M191.948,0.187C191.875,0.276 191.834,0.389 191.834,0.504C191.834,0.656 191.903,0.799 192.021,0.894C262.344,57.746 304.844,142.486 304.846,239.968C304.846,411.252 171.768,550.076 0.5,550.078C0.224,550.078 -0.003,550.305 -0.003,550.581C-0.003,550.857 0.224,551.084 0.5,551.084C172.33,550.772 305.545,411.784 305.85,239.968C305.85,142.19 263.2,57.143 192.65,0.112C192.561,0.039 192.449,-0 192.334,-0C192.183,-0 192.039,0.069 191.944,0.187" style="fill:rgb(0,120,137);fill-rule:nonzero;stroke:rgb(0,59,78);stroke-width:2px;"/>
        </g>
        <g id="Path_11" transform="matrix(1,0,0,1,9157,3448)">
            <path d="M-8321,-2340C-8323.67,-2339.99 -8326.32,-2340.53 -8328.78,-2341.57C-8331.16,-2342.58 -8333.32,-2344.03 -8335.14,-2345.86C-8336.97,-2347.68 -8338.42,-2349.84 -8339.43,-2352.22C-8340.47,-2354.68 -8341.01,-2357.33 -8341,-2360C-8341.01,-2362.67 -8340.47,-2365.32 -8339.43,-2367.78C-8338.42,-2370.16 -8336.97,-2372.32 -8335.14,-2374.14C-8333.32,-2375.97 -8331.16,-2377.43 -8328.78,-2378.43C-8326.32,-2379.47 -8323.67,-2380.01 -8321,-2380C-8318.33,-2380.01 -8315.68,-2379.47 -8313.22,-2378.43C-8310.84,-2377.42 -8308.68,-2375.97 -8306.86,-2374.14C-8305.03,-2372.32 -8303.58,-2370.16 -8302.57,-2367.78C-8301.53,-2365.32 -8301,-2362.67 -8301,-2360C-8300.99,-2357.33 -8301.53,-2354.68 -8302.57,-2352.22C-8303.58,-2349.84 -8305.03,-2347.68 -8306.86,-2345.86C-8308.68,-2344.03 -8310.84,-2342.58 -8313.21,-2341.57C-8315.68,-2340.53 -8318.33,-2339.99 -8321,-2340ZM-8321,-2370.5C-8326.76,-2370.49 -8331.5,-2365.76 -8331.5,-2360C-8331.5,-2354.24 -8326.76,-2349.51 -8321,-2349.5C-8315.24,-2349.51 -8310.51,-2354.24 -8310.5,-2360C-8310.51,-2365.76 -8315.24,-2370.49 -8321,-2370.5Z" style="fill:url(#_Linear3);fill-rule:nonzero;"/>
        </g>
        <g id="Path_12" transform="matrix(0.883,-0.469,0.469,0.883,729.479,566.367)">
            <path d="M191.948,0.187C191.875,0.276 191.834,0.389 191.834,0.504C191.834,0.656 191.903,0.799 192.021,0.894C231.44,32.605 262.253,73.731 281.613,120.472L281.894,121.153L282.921,121.007L282.887,120.923L282.63,120.298C263.228,73.307 232.278,31.964 192.655,0.112C192.566,0.039 192.454,-0 192.339,-0C192.188,-0 192.044,0.069 191.949,0.187" style="fill:rgb(0,120,137);fill-rule:nonzero;stroke:rgb(0,59,78);stroke-width:2px;"/>
        </g>
        <g id="Path_30" transform="matrix(1,0,0,1,1394,476)">
            <path d="M6.9,2.82L7.56,1.8C4.52,-0.14 2.92,-2.54 2.92,-5.74C2.92,-8.94 4.52,-11.34 7.56,-13.28L6.9,-14.3C3.34,-12.3 1.36,-9.42 1.36,-5.74C1.36,-2.06 3.34,0.82 6.9,2.82ZM10.8,0L12.34,0L12.34,-5.92C12.336,-5.986 12.334,-6.052 12.334,-6.119C12.334,-7.787 13.707,-9.161 15.376,-9.161C15.397,-9.161 15.419,-9.16 15.44,-9.16C17.26,-9.16 18.3,-7.96 18.3,-6.04L18.3,0L19.84,0L19.84,-6.42C19.84,-8.88 18.38,-10.56 15.88,-10.56C14.417,-10.602 13.048,-9.821 12.34,-8.54L12.34,-10.34L10.8,-10.34L10.8,0ZM28.24,0.24C28.257,0.24 28.274,0.24 28.291,0.24C31.236,0.24 33.66,-2.183 33.66,-5.129C33.66,-5.139 33.66,-5.15 33.66,-5.16L33.66,-5.2C33.66,-5.215 33.66,-5.231 33.66,-5.246C33.66,-8.162 31.261,-10.56 28.346,-10.56C28.324,-10.56 28.302,-10.56 28.28,-10.56C28.264,-10.56 28.248,-10.56 28.232,-10.56C25.296,-10.56 22.88,-8.144 22.88,-5.208C22.88,-5.192 22.88,-5.176 22.88,-5.16L22.88,-5.12C22.88,-5.1 22.88,-5.08 22.88,-5.06C22.88,-2.152 25.272,0.24 28.18,0.24C28.2,0.24 28.22,0.24 28.24,0.24ZM28.28,-1.14C26.174,-1.171 24.457,-2.912 24.457,-5.019C24.457,-5.066 24.458,-5.113 24.46,-5.16L24.46,-5.2C24.457,-5.261 24.456,-5.323 24.456,-5.384C24.456,-7.466 26.159,-9.183 28.24,-9.2C30.359,-9.162 32.082,-7.407 32.082,-5.288C32.082,-5.245 32.081,-5.203 32.08,-5.16L32.08,-5.12C32.082,-5.065 32.084,-5.01 32.084,-4.955C32.084,-2.866 30.369,-1.146 28.28,-1.14ZM40.26,0.2C42.32,0.2 43.94,-0.94 43.94,-2.9L43.94,-2.94C43.94,-4.8 42.22,-5.42 40.62,-5.9C39.24,-6.32 37.96,-6.7 37.96,-7.68L37.96,-7.72C37.96,-8.58 38.74,-9.22 39.96,-9.22C41.053,-9.18 42.114,-8.833 43.02,-8.22L43.72,-9.38C42.611,-10.1 41.322,-10.495 40,-10.52C37.96,-10.52 36.48,-9.34 36.48,-7.56L36.48,-7.52C36.48,-5.62 38.28,-5.06 39.9,-4.6C41.26,-4.22 42.48,-3.82 42.48,-2.78L42.48,-2.74C42.48,-1.74 41.58,-1.1 40.34,-1.1C39.036,-1.142 37.779,-1.605 36.76,-2.42L35.98,-1.32C37.202,-0.359 38.706,0.175 40.26,0.2ZM50.42,0.2C52.48,0.2 54.1,-0.94 54.1,-2.9L54.1,-2.94C54.1,-4.8 52.38,-5.42 50.78,-5.9C49.4,-6.32 48.12,-6.7 48.12,-7.68L48.12,-7.72C48.12,-8.58 48.9,-9.22 50.12,-9.22C51.213,-9.18 52.274,-8.833 53.18,-8.22L53.88,-9.38C52.771,-10.1 51.482,-10.495 50.16,-10.52C48.12,-10.52 46.64,-9.34 46.64,-7.56L46.64,-7.52C46.64,-5.62 48.44,-5.06 50.06,-4.6C51.42,-4.22 52.64,-3.82 52.64,-2.78L52.64,-2.74C52.64,-1.74 51.74,-1.1 50.5,-1.1C49.196,-1.142 47.939,-1.605 46.92,-2.42L46.14,-1.32C47.362,-0.359 48.866,0.175 50.42,0.2ZM62.08,0.24C62.097,0.24 62.114,0.24 62.131,0.24C65.076,0.24 67.5,-2.183 67.5,-5.129C67.5,-5.139 67.5,-5.15 67.5,-5.16L67.5,-5.2C67.5,-5.215 67.5,-5.231 67.5,-5.246C67.5,-8.162 65.101,-10.56 62.186,-10.56C62.164,-10.56 62.142,-10.56 62.12,-10.56C62.104,-10.56 62.088,-10.56 62.072,-10.56C59.136,-10.56 56.72,-8.144 56.72,-5.208C56.72,-5.192 56.72,-5.176 56.72,-5.16L56.72,-5.12C56.72,-5.1 56.72,-5.08 56.72,-5.06C56.72,-2.152 59.112,0.24 62.02,0.24C62.04,0.24 62.06,0.24 62.08,0.24ZM62.12,-1.14C60.014,-1.171 58.297,-2.912 58.297,-5.019C58.297,-5.066 58.298,-5.113 58.3,-5.16L58.3,-5.2C58.297,-5.261 58.296,-5.323 58.296,-5.384C58.296,-7.466 59.999,-9.183 62.08,-9.2C64.199,-9.162 65.922,-7.407 65.922,-5.288C65.922,-5.245 65.921,-5.203 65.92,-5.16L65.92,-5.12C65.922,-5.065 65.924,-5.01 65.924,-4.955C65.924,-2.866 64.209,-1.146 62.12,-1.14ZM74.1,0.2C76.16,0.2 77.78,-0.94 77.78,-2.9L77.78,-2.94C77.78,-4.8 76.06,-5.42 74.46,-5.9C73.08,-6.32 71.8,-6.7 71.8,-7.68L71.8,-7.72C71.8,-8.58 72.58,-9.22 73.8,-9.22C74.893,-9.18 75.954,-8.833 76.86,-8.22L77.56,-9.38C76.451,-10.1 75.162,-10.495 73.84,-10.52C71.8,-10.52 70.32,-9.34 70.32,-7.56L70.32,-7.52C70.32,-5.62 72.12,-5.06 73.74,-4.6C75.1,-4.22 76.32,-3.82 76.32,-2.78L76.32,-2.74C76.32,-1.74 75.42,-1.1 74.18,-1.1C72.876,-1.142 71.619,-1.605 70.6,-2.42L69.82,-1.32C71.042,-0.359 72.546,0.175 74.1,0.2ZM87.48,-12.6L89.24,-12.6L89.24,-14.3L87.48,-14.3L87.48,-12.6ZM87.58,0L89.12,0L89.12,-10.34L87.58,-10.34L87.58,0ZM93.1,0L94.64,0L94.64,-5.9C94.632,-5.987 94.629,-6.075 94.629,-6.162C94.629,-7.767 95.916,-9.102 97.52,-9.16C99.16,-9.16 100.18,-8.02 100.18,-6.08L100.18,0L101.72,0L101.72,-5.96C101.708,-6.066 101.702,-6.172 101.702,-6.279C101.702,-7.851 102.988,-9.147 104.56,-9.16C106.24,-9.16 107.24,-8.04 107.24,-6.04L107.24,0L108.78,0L108.78,-6.4C108.78,-8.96 107.32,-10.56 104.94,-10.56C103.444,-10.586 102.048,-9.795 101.3,-8.5C100.714,-9.793 99.399,-10.609 97.98,-10.56C96.593,-10.571 95.307,-9.816 94.64,-8.6L94.64,-10.34L93.1,-10.34L93.1,0ZM112.52,3.2L114.06,3.2L114.06,-1.98C114.911,-0.613 116.41,0.22 118.02,0.22C120.754,0.16 122.97,-2.106 122.97,-4.841C122.97,-4.947 122.967,-5.054 122.96,-5.16L122.96,-5.2C122.967,-5.306 122.97,-5.412 122.97,-5.518C122.97,-8.249 120.751,-10.51 118.02,-10.56C116.39,-10.542 114.884,-9.667 114.06,-8.26L114.06,-10.34L112.52,-10.34L112.52,3.2ZM117.74,-1.16C115.669,-1.216 113.997,-2.935 113.997,-5.007C113.997,-5.058 113.998,-5.109 114,-5.16L114,-5.2C113.999,-5.242 113.998,-5.284 113.998,-5.326C113.998,-7.398 115.669,-9.119 117.74,-9.18C119.755,-9.141 121.39,-7.473 121.39,-5.458C121.39,-5.365 121.387,-5.272 121.38,-5.18L121.38,-5.14C121.39,-5.03 121.395,-4.92 121.395,-4.809C121.395,-2.807 119.748,-1.16 117.746,-1.16C117.744,-1.16 117.742,-1.16 117.74,-1.16ZM129.28,0.22C130.74,0.265 132.134,-0.399 133.02,-1.56L133.02,0L134.5,0L134.5,-6.32C134.573,-7.429 134.189,-8.52 133.44,-9.34C132.527,-10.155 131.321,-10.566 130.1,-10.48C128.798,-10.484 127.511,-10.19 126.34,-9.62L126.8,-8.36C127.776,-8.848 128.849,-9.108 129.94,-9.12C131.88,-9.12 133.02,-8.16 133.02,-6.3L133.02,-5.94C131.987,-6.242 130.916,-6.39 129.84,-6.38C127.22,-6.38 125.42,-5.22 125.42,-3.04L125.42,-3C125.42,-0.88 127.36,0.22 129.28,0.22ZM129.58,-1C128.18,-1 126.98,-1.76 126.98,-3.06L126.98,-3.1C126.98,-4.4 128.06,-5.24 130,-5.24C131.029,-5.239 132.053,-5.091 133.04,-4.8L133.04,-3.8C133.04,-2.16 131.48,-1 129.58,-1ZM142.84,0.24C144.478,0.258 146.037,-0.48 147.06,-1.76L146.08,-2.68C145.297,-1.737 144.145,-1.175 142.92,-1.14C140.824,-1.172 139.117,-2.906 139.117,-5.003C139.117,-5.055 139.118,-5.108 139.12,-5.16L139.12,-5.2C139.117,-5.262 139.115,-5.324 139.115,-5.386C139.115,-7.437 140.77,-9.14 142.82,-9.2C144.044,-9.166 145.193,-8.595 145.96,-7.64L146.98,-8.72C145.943,-9.918 144.424,-10.593 142.84,-10.56C139.927,-10.543 137.54,-8.142 137.54,-5.229C137.54,-5.206 137.54,-5.183 137.54,-5.16L137.54,-5.12C137.54,-5.103 137.54,-5.086 137.54,-5.069C137.54,-2.16 139.931,0.235 142.84,0.24ZM153.46,0.18C154.107,0.191 154.747,0.04 155.32,-0.26L155.32,-1.58C154.856,-1.341 154.342,-1.217 153.82,-1.22C153.746,-1.209 153.671,-1.204 153.596,-1.204C152.757,-1.204 152.066,-1.894 152.066,-2.734C152.066,-2.803 152.071,-2.872 152.08,-2.94L152.08,-8.98L155.36,-8.98L155.36,-10.34L152.08,-10.34L152.08,-13.46L150.54,-13.46L150.54,-10.34L149.1,-10.34L149.1,-8.98L150.54,-8.98L150.54,-2.74C150.528,-2.638 150.522,-2.536 150.522,-2.434C150.522,-0.99 151.71,0.198 153.154,0.198C153.256,0.198 153.358,0.192 153.46,0.18ZM162.9,0.24C162.917,0.24 162.934,0.24 162.951,0.24C165.896,0.24 168.32,-2.183 168.32,-5.129C168.32,-5.139 168.32,-5.15 168.32,-5.16L168.32,-5.2C168.32,-5.215 168.32,-5.231 168.32,-5.246C168.32,-8.162 165.921,-10.56 163.006,-10.56C162.984,-10.56 162.962,-10.56 162.94,-10.56C162.924,-10.56 162.908,-10.56 162.892,-10.56C159.956,-10.56 157.54,-8.144 157.54,-5.208C157.54,-5.192 157.54,-5.176 157.54,-5.16L157.54,-5.12C157.54,-5.1 157.54,-5.08 157.54,-5.06C157.54,-2.152 159.932,0.24 162.84,0.24C162.86,0.24 162.88,0.24 162.9,0.24ZM162.94,-1.14C160.834,-1.171 159.117,-2.912 159.117,-5.019C159.117,-5.066 159.118,-5.113 159.12,-5.16L159.12,-5.2C159.117,-5.261 159.116,-5.323 159.116,-5.384C159.116,-7.466 160.819,-9.183 162.9,-9.2C165.019,-9.162 166.742,-7.407 166.742,-5.288C166.742,-5.245 166.741,-5.203 166.74,-5.16L166.74,-5.12C166.742,-5.065 166.744,-5.01 166.744,-4.955C166.744,-2.866 165.029,-1.146 162.94,-1.14ZM174.92,0.2C176.98,0.2 178.6,-0.94 178.6,-2.9L178.6,-2.94C178.6,-4.8 176.88,-5.42 175.28,-5.9C173.9,-6.32 172.62,-6.7 172.62,-7.68L172.62,-7.72C172.62,-8.58 173.4,-9.22 174.62,-9.22C175.713,-9.18 176.774,-8.833 177.68,-8.22L178.38,-9.38C177.271,-10.1 175.982,-10.495 174.66,-10.52C172.62,-10.52 171.14,-9.34 171.14,-7.56L171.14,-7.52C171.14,-5.62 172.94,-5.06 174.56,-4.6C175.92,-4.22 177.14,-3.82 177.14,-2.78L177.14,-2.74C177.14,-1.74 176.24,-1.1 175,-1.1C173.696,-1.142 172.439,-1.605 171.42,-2.42L170.64,-1.32C171.862,-0.359 173.366,0.175 174.92,0.2ZM181.52,2.82C185.08,0.82 187.06,-2.06 187.06,-5.74C187.06,-9.42 185.08,-12.3 181.52,-14.3L180.86,-13.28C183.9,-11.34 185.5,-8.94 185.5,-5.74C185.5,-2.54 183.9,-0.14 180.86,1.8L181.52,2.82Z" style="fill:rgb(0,59,78);fill-rule:nonzero;"/>
        </g>
        <g id="Path_34" transform="matrix(1,0,0,1,1331,445)">
            <path d="M8.48,0.24C8.553,0.242 8.627,0.243 8.7,0.243C12.672,0.243 15.94,-3.025 15.94,-6.997L15.94,-7.04C15.94,-7.05 15.94,-7.061 15.94,-7.071C15.94,-11.006 12.702,-14.244 8.767,-14.244C8.685,-14.244 8.602,-14.243 8.52,-14.24C8.447,-14.242 8.373,-14.243 8.3,-14.243C4.328,-14.243 1.06,-10.975 1.06,-7.003L1.06,-6.96C1.06,-6.95 1.06,-6.939 1.06,-6.929C1.06,-2.994 4.298,0.244 8.233,0.244C8.315,0.244 8.398,0.243 8.48,0.24ZM8.52,-2.6C6.191,-2.606 4.277,-4.524 4.277,-6.853C4.277,-6.902 4.278,-6.951 4.28,-7L4.28,-7.04C4.278,-7.098 4.276,-7.155 4.276,-7.213C4.276,-9.51 6.167,-11.4 8.463,-11.4C8.469,-11.4 8.474,-11.4 8.48,-11.4C10.809,-11.394 12.723,-9.476 12.723,-7.147C12.723,-7.098 12.722,-7.049 12.72,-7L12.72,-6.96C12.722,-6.902 12.724,-6.845 12.724,-6.787C12.724,-4.49 10.833,-2.6 8.537,-2.6C8.531,-2.6 8.526,-2.6 8.52,-2.6ZM24.92,0.22C28.68,0.22 31.06,-1.86 31.06,-6.1L31.06,-14L27.98,-14L27.98,-5.98C27.98,-3.76 26.84,-2.62 24.96,-2.62C23.08,-2.62 21.94,-3.8 21.94,-6.08L21.94,-14L18.86,-14L18.86,-6C18.86,-1.88 21.16,0.22 24.92,0.22ZM37.86,0L40.94,0L40.94,-11.16L45.2,-11.16L45.2,-14L33.6,-14L33.6,-11.16L37.86,-11.16L37.86,0ZM53.92,0.24C56.114,0.332 58.233,-0.591 59.66,-2.26L57.7,-4.24C56.754,-3.207 55.42,-2.613 54.02,-2.6C51.774,-2.649 49.953,-4.51 49.953,-6.757C49.953,-6.838 49.955,-6.919 49.96,-7L49.96,-7.04C49.956,-7.111 49.955,-7.182 49.955,-7.253C49.955,-9.497 51.776,-11.355 54.02,-11.4C55.374,-11.363 56.66,-10.795 57.6,-9.82L59.56,-12.08C58.115,-13.556 56.103,-14.343 54.04,-14.24C53.978,-14.242 53.916,-14.242 53.854,-14.242C49.951,-14.242 46.739,-11.031 46.739,-7.127C46.739,-7.085 46.739,-7.042 46.74,-7L46.74,-6.96C46.739,-6.915 46.739,-6.871 46.739,-6.826C46.739,-2.949 49.929,0.241 53.806,0.241C53.844,0.241 53.882,0.241 53.92,0.24ZM68.92,0.24C68.993,0.242 69.067,0.243 69.14,0.243C73.112,0.243 76.38,-3.025 76.38,-6.997L76.38,-7.04C76.38,-7.05 76.38,-7.061 76.38,-7.071C76.38,-11.006 73.142,-14.244 69.207,-14.244C69.125,-14.244 69.042,-14.243 68.96,-14.24C68.887,-14.242 68.813,-14.243 68.74,-14.243C64.768,-14.243 61.5,-10.975 61.5,-7.003L61.5,-6.96C61.5,-6.95 61.5,-6.939 61.5,-6.929C61.5,-2.994 64.738,0.244 68.673,0.244C68.755,0.244 68.838,0.243 68.92,0.24ZM68.96,-2.6C66.631,-2.606 64.717,-4.524 64.717,-6.853C64.717,-6.902 64.718,-6.951 64.72,-7L64.72,-7.04C64.718,-7.098 64.716,-7.155 64.716,-7.213C64.716,-9.51 66.607,-11.4 68.903,-11.4C68.909,-11.4 68.914,-11.4 68.92,-11.4C71.249,-11.394 73.163,-9.476 73.163,-7.147C73.163,-7.098 73.162,-7.049 73.16,-7L73.16,-6.96C73.162,-6.902 73.164,-6.845 73.164,-6.787C73.164,-4.49 71.273,-2.6 68.977,-2.6C68.971,-2.6 68.966,-2.6 68.96,-2.6ZM79.52,0L82.54,0L82.54,-9.08L86.44,-3.16L86.52,-3.16L90.46,-9.14L90.46,0L93.52,0L93.52,-14L90.2,-14L86.52,-8.08L82.84,-14L79.52,-14L79.52,0ZM97.28,0L107.94,0L107.94,-2.74L100.34,-2.74L100.34,-5.68L106.94,-5.68L106.94,-8.42L100.34,-8.42L100.34,-11.26L107.84,-11.26L107.84,-14L97.28,-14L97.28,0ZM116.06,0.2C119.08,0.2 121.2,-1.36 121.2,-4.14L121.2,-4.18C121.2,-6.62 119.6,-7.64 116.76,-8.38C114.34,-9 113.74,-9.3 113.74,-10.22L113.74,-10.26C113.74,-10.94 114.36,-11.48 115.54,-11.48C116.865,-11.398 118.134,-10.917 119.18,-10.1L120.78,-12.42C119.307,-13.601 117.467,-14.231 115.58,-14.2C112.72,-14.2 110.68,-12.52 110.68,-9.98L110.68,-9.94C110.68,-7.16 112.5,-6.38 115.32,-5.66C117.66,-5.06 118.14,-4.66 118.14,-3.88L118.14,-3.84C118.14,-3.02 117.38,-2.52 116.12,-2.52C114.567,-2.562 113.082,-3.167 111.94,-4.22L110.12,-2.04C111.757,-0.59 113.873,0.208 116.06,0.2Z" style="fill:rgb(0,59,78);fill-rule:nonzero;"/>
        </g>
        <g id="Path_13" transform="matrix(1,0,0,1,898.5,475.999)">
            <path d="M0,0L238,0" style="fill:none;fill-rule:nonzero;stroke:rgb(0,59,78);stroke-width:3px;"/>
        </g>
        <g id="Path_14" transform="matrix(1,0,0,1,1171,475.999)">
            <path d="M0,0L162.166,0" style="fill:none;fill-rule:nonzero;stroke:rgb(0,59,78);stroke-width:3px;"/>
        </g>
        <g id="Path_15" transform="matrix(1,0,0,1,9205,2836)">
            <path d="M-8321,-2340C-8323.67,-2339.99 -8326.32,-2340.53 -8328.78,-2341.57C-8331.16,-2342.58 -8333.32,-2344.03 -8335.14,-2345.86C-8336.97,-2347.68 -8338.42,-2349.84 -8339.43,-2352.22C-8340.47,-2354.68 -8341.01,-2357.33 -8341,-2360C-8341.01,-2362.67 -8340.47,-2365.32 -8339.43,-2367.78C-8338.42,-2370.16 -8336.97,-2372.32 -8335.14,-2374.14C-8333.32,-2375.97 -8331.16,-2377.43 -8328.78,-2378.43C-8326.32,-2379.47 -8323.67,-2380.01 -8321,-2380C-8318.33,-2380.01 -8315.68,-2379.47 -8313.22,-2378.43C-8310.84,-2377.42 -8308.68,-2375.97 -8306.86,-2374.14C-8305.03,-2372.32 -8303.58,-2370.16 -8302.57,-2367.78C-8301.53,-2365.32 -8301,-2362.67 -8301,-2360C-8300.99,-2357.33 -8301.53,-2354.68 -8302.57,-2352.22C-8303.58,-2349.84 -8305.03,-2347.68 -8306.86,-2345.86C-8308.68,-2344.03 -8310.84,-2342.58 -8313.21,-2341.57C-8315.68,-2340.53 -8318.33,-2339.99 -8321,-2340ZM-8321,-2370.5C-8326.76,-2370.49 -8331.5,-2365.76 -8331.5,-2360C-8331.5,-2354.24 -8326.76,-2349.51 -8321,-2349.5C-8315.24,-2349.51 -8310.51,-2354.24 -8310.5,-2360C-8310.51,-2365.76 -8315.24,-2370.49 -8321,-2370.5Z" style="fill:url(#_Linear4);fill-rule:nonzero;"/>
        </g>
        <g id="Path_16" transform="matrix(-1,-7.65714e-16,7.65714e-16,-1,9431.29,8712.72)">
            <path d="M8581,8154.57L8595.57,8140L8610.15,8154.57" style="fill:none;fill-rule:nonzero;stroke:rgb(0,59,78);stroke-width:3px;"/>
        </g>
        <g id="Path_17" transform="matrix(1,0,0,1,-7450.15,-7366.82)">
            <path d="M8581,8154.57L8595.57,8140L8610.15,8154.57" style="fill:none;fill-rule:nonzero;stroke:rgb(0,59,78);stroke-width:3px;"/>
        </g>
        <g id="Path_18" transform="matrix(-3.82857e-16,1,-1,-3.82857e-16,9180,-8118.15)">
            <path d="M8581,8154.57L8595.57,8140L8610.15,8154.57" style="fill:none;fill-rule:nonzero;stroke:rgb(0,59,78);stroke-width:3px;"/>
        </g>
        <g id="Path_19" transform="matrix(-3.82857e-16,1,-1,-3.82857e-16,9406.07,-8118.15)">
            <path d="M8581,8154.57L8595.57,8140L8610.15,8154.57" style="fill:none;fill-rule:nonzero;stroke:rgb(0,59,78);stroke-width:3px;"/>
        </g>
        <g id="Group_6" transform="matrix(1,0,0,1,120,-5240)">
            <g id="Path_20" transform="matrix(1,0,0,1,1243,5783.23)">
                <path d="M16.656,0C16.383,0.001 16.158,0.227 16.158,0.5C16.158,0.569 16.172,0.637 16.2,0.7C47.64,72.986 64.535,152.006 64.535,235.868C64.535,329.416 38.695,428.009 0.051,506.668C0.017,506.737 -0,506.812 -0,506.889C-0,507.163 0.226,507.39 0.501,507.39C0.692,507.39 0.867,507.28 0.951,507.109C39.66,428.309 65.536,329.6 65.537,235.865C65.537,151.865 48.613,72.709 17.117,0.298C17.038,0.116 16.857,-0.002 16.659,-0.002L16.656,0Z" style="fill:rgb(0,120,137);fill-rule:nonzero;stroke:rgb(0,120,137);stroke-width:2px;"/>
            </g>
            <g id="Path_21" transform="matrix(0.992546,-0.121869,0.121869,0.992546,1215.23,5731.96)">
                <path d="M16.656,0C16.383,0.001 16.158,0.227 16.158,0.5C16.158,0.569 16.172,0.637 16.2,0.7C25.864,22.711 34.147,45.302 41,68.343C41.2,69.03 41.434,70.69 41.434,70.69L41.698,70.184C41.698,70.184 41.26,66.898 41.056,66.205C34.482,43.751 26.486,21.738 17.115,0.3C17.036,0.118 16.855,0 16.657,0L16.656,0Z" style="fill:rgb(0,120,137);fill-rule:nonzero;stroke:rgb(0,120,137);stroke-width:2px;stroke-linejoin:round;"/>
            </g>
        </g>
        <g id="Path_22" transform="matrix(1,0,0,1,9668,2836)">
            <path d="M-8321,-2340C-8323.67,-2339.99 -8326.32,-2340.53 -8328.78,-2341.57C-8331.16,-2342.58 -8333.32,-2344.03 -8335.14,-2345.86C-8336.97,-2347.68 -8338.42,-2349.84 -8339.43,-2352.22C-8340.47,-2354.68 -8341.01,-2357.33 -8341,-2360C-8341.01,-2362.67 -8340.47,-2365.32 -8339.43,-2367.78C-8338.42,-2370.16 -8336.97,-2372.32 -8335.14,-2374.14C-8333.32,-2375.97 -8331.16,-2377.43 -8328.78,-2378.43C-8326.32,-2379.47 -8323.67,-2380.01 -8321,-2380C-8318.33,-2380.01 -8315.68,-2379.47 -8313.22,-2378.43C-8310.84,-2377.42 -8308.68,-2375.97 -8306.86,-2374.14C-8305.03,-2372.32 -8303.58,-2370.16 -8302.57,-2367.78C-8301.53,-2365.32 -8301,-2362.67 -8301,-2360C-8300.99,-2357.33 -8301.53,-2354.68 -8302.57,-2352.22C-8303.58,-2349.84 -8305.03,-2347.68 -8306.86,-2345.86C-8308.68,-2344.03 -8310.84,-2342.58 -8313.21,-2341.57C-8315.68,-2340.53 -8318.33,-2339.99 -8321,-2340ZM-8321,-2370.5C-8326.76,-2370.49 -8331.5,-2365.76 -8331.5,-2360C-8331.5,-2354.24 -8326.76,-2349.51 -8321,-2349.5C-8315.24,-2349.51 -8310.51,-2354.24 -8310.5,-2360C-8310.51,-2365.76 -8315.24,-2370.49 -8321,-2370.5Z" style="fill:url(#_Linear5);fill-rule:nonzero;"/>
        </g>
        <g id="Group_7" transform="matrix(1,0,0,1,1131,429)">
            <g id="OUTPUT" transform="matrix(1,0,0,1,0.001,16)">
                <g>
                    <path d="M8.48,0.24C12.8,0.24 15.94,-3.02 15.94,-7L15.94,-7.04C15.94,-11.02 12.84,-14.24 8.52,-14.24C4.2,-14.24 1.06,-10.98 1.06,-7L1.06,-6.96C1.06,-2.98 4.16,0.24 8.48,0.24ZM8.52,-2.6C6.04,-2.6 4.28,-4.6 4.28,-7L4.28,-7.04C4.28,-9.44 6,-11.4 8.48,-11.4C10.96,-11.4 12.72,-9.4 12.72,-7L12.72,-6.96C12.72,-4.56 11,-2.6 8.52,-2.6Z" style="fill:rgb(0,59,78);fill-rule:nonzero;"/>
                    <path d="M24.568,0.22C28.328,0.22 30.708,-1.86 30.708,-6.1L30.708,-14L27.628,-14L27.628,-5.98C27.628,-3.76 26.488,-2.62 24.608,-2.62C22.728,-2.62 21.588,-3.8 21.588,-6.08L21.588,-14L18.508,-14L18.508,-6C18.508,-1.88 20.808,0.22 24.568,0.22Z" style="fill:rgb(0,59,78);fill-rule:nonzero;"/>
                    <path d="M37.156,0L40.236,0L40.236,-11.16L44.496,-11.16L44.496,-14L32.896,-14L32.896,-11.16L37.156,-11.16L37.156,0Z" style="fill:rgb(0,59,78);fill-rule:nonzero;"/>
                    <path d="M46.904,0L49.984,0L49.984,-4.2L52.324,-4.2C55.464,-4.2 57.984,-5.88 57.984,-9.12L57.984,-9.16C57.984,-12.02 55.964,-14 52.624,-14L46.904,-14L46.904,0ZM49.984,-6.94L49.984,-11.22L52.364,-11.22C53.904,-11.22 54.864,-10.48 54.864,-9.1L54.864,-9.06C54.864,-7.86 53.964,-6.94 52.424,-6.94L49.984,-6.94Z" style="fill:rgb(0,59,78);fill-rule:nonzero;"/>
                    <path d="M66.152,0.22C69.912,0.22 72.292,-1.86 72.292,-6.1L72.292,-14L69.212,-14L69.212,-5.98C69.212,-3.76 68.072,-2.62 66.192,-2.62C64.312,-2.62 63.172,-3.8 63.172,-6.08L63.172,-14L60.092,-14L60.092,-6C60.092,-1.88 62.392,0.22 66.152,0.22Z" style="fill:rgb(0,59,78);fill-rule:nonzero;"/>
                    <path d="M78.74,0L81.82,0L81.82,-11.16L86.08,-11.16L86.08,-14L74.48,-14L74.48,-11.16L78.74,-11.16L78.74,0Z" style="fill:rgb(0,59,78);fill-rule:nonzero;"/>
                </g>
            </g>
            <g id="Path_23" transform="matrix(1,0,0,1,8341,2407)">
                <path d="M-8321,-2340C-8323.67,-2339.99 -8326.32,-2340.53 -8328.78,-2341.57C-8331.16,-2342.58 -8333.32,-2344.03 -8335.14,-2345.86C-8336.97,-2347.68 -8338.42,-2349.84 -8339.43,-2352.22C-8340.47,-2354.68 -8341.01,-2357.33 -8341,-2360C-8341.01,-2362.67 -8340.47,-2365.32 -8339.43,-2367.78C-8338.42,-2370.16 -8336.97,-2372.32 -8335.14,-2374.14C-8333.32,-2375.97 -8331.16,-2377.43 -8328.78,-2378.43C-8326.32,-2379.47 -8323.67,-2380.01 -8321,-2380C-8318.33,-2380.01 -8315.68,-2379.47 -8313.22,-2378.43C-8310.84,-2377.42 -8308.68,-2375.97 -8306.86,-2374.14C-8305.03,-2372.32 -8303.58,-2370.16 -8302.57,-2367.78C-8301.53,-2365.32 -8301,-2362.67 -8301,-2360C-8300.99,-2357.33 -8301.53,-2354.68 -8302.57,-2352.22C-8303.58,-2349.84 -8305.03,-2347.68 -8306.86,-2345.86C-8308.68,-2344.03 -8310.84,-2342.58 -8313.21,-2341.57C-8315.68,-2340.53 -8318.33,-2339.99 -8321,-2340ZM-8321,-2370.5C-8326.76,-2370.49 -8331.5,-2365.76 -8331.5,-2360C-8331.5,-2354.24 -8326.76,-2349.51 -8321,-2349.5C-8315.24,-2349.51 -8310.51,-2354.24 -8310.5,-2360C-8310.51,-2365.76 -8315.24,-2370.49 -8321,-2370.5Z" style="fill:url(#_Linear6);fill-rule:nonzero;"/>
            </g>
        </g>
        <g id="Group_9" transform="matrix(1,0,0,1,783.373,727.835)">
            <g id="Group_8">
                <g id="Path_24" transform="matrix(1,0,0,1,0,25.34)">
                    <path d="M53.675,54.51C53.669,54.51 53.663,54.51 53.657,54.51C39.242,54.51 27.381,42.649 27.381,28.234C27.381,28.223 27.381,28.211 27.381,28.2L0,28.2C0.014,57.647 24.228,81.88 53.675,81.916L53.675,54.51Z" style="fill:rgb(0,75,96);fill-rule:nonzero;"/>
                </g>
                <g id="Path_25" transform="matrix(1,0,0,1,0,0.001)">
                    <path d="M27.381,53.541C27.358,39.093 39.227,27.186 53.675,27.162L53.675,0C53.648,-0 53.621,-0 53.594,-0C24.213,-0 0.029,24.16 0,53.541L27.381,53.541Z" style="fill:rgb(0,137,154);fill-rule:nonzero;"/>
                </g>
                <g id="Path_26" transform="matrix(1,0,0,1,25.402,0)">
                    <path d="M28.273,27.163C42.749,27.185 54.655,39.087 54.681,53.563L81.854,53.546C81.854,53.535 81.854,53.525 81.854,53.514C81.854,24.157 57.697,-0 28.34,-0C28.318,-0 28.295,-0 28.273,0L28.273,27.163Z" style="fill:rgb(0,190,198);fill-rule:nonzero;"/>
                </g>
                <g id="Path_27" transform="matrix(1,0,0,1,12.958,25.339)">
                    <path d="M40.717,32.181C38.511,32.201 36.679,30.406 36.654,28.2L14.423,28.2C14.423,28.214 14.423,28.228 14.423,28.242C14.423,42.652 26.28,54.509 40.69,54.509C40.699,54.509 40.708,54.509 40.717,54.509L40.717,32.181Z" style="fill:rgb(0,137,154);fill-rule:nonzero;"/>
                </g>
                <g id="Path_28" transform="matrix(1,0,0,1,25.402,25.34)">
                    <path d="M28.273,54.51C28.293,54.51 28.312,54.51 28.332,54.51C42.764,54.51 54.649,42.652 54.681,28.22L32.237,28.2C32.237,28.213 32.237,28.225 32.237,28.238C32.237,30.4 30.458,32.179 28.296,32.179C28.288,32.179 28.281,32.179 28.273,32.179L28.273,54.51Z" style="fill:rgb(0,75,96);fill-rule:nonzero;"/>
                </g>
                <g id="Path_29" transform="matrix(1,0,0,1,12.958,12.856)">
                    <path d="M40.717,14.308C26.287,14.327 14.423,26.206 14.423,40.636C14.423,40.653 14.423,40.67 14.423,40.687L36.654,40.687C36.674,38.468 38.498,36.65 40.717,36.638L40.717,14.308Z" style="fill:rgb(0,190,198);fill-rule:nonzero;"/>
                </g>
            </g>
        </g>
    </g>
    <defs>
        <linearGradient id="_Linear2" x1="0" y1="0" x2="1" y2="0" gradientUnits="userSpaceOnUse" gradientTransform="matrix(37.2401,-12.6,12.6,37.2401,-8335.36,-2360)"><stop offset="0" style="stop-color:rgb(0,59,78);stop-opacity:1"/><stop offset="1" style="stop-color:rgb(123,220,224);stop-opacity:1"/></linearGradient>
        <linearGradient id="_Linear3" x1="0" y1="0" x2="1" y2="0" gradientUnits="userSpaceOnUse" gradientTransform="matrix(37.2401,-12.6,12.6,37.2401,-8335.36,-2360)"><stop offset="0" style="stop-color:rgb(0,59,78);stop-opacity:1"/><stop offset="1" style="stop-color:rgb(123,220,224);stop-opacity:1"/></linearGradient>
        <linearGradient id="_Linear4" x1="0" y1="0" x2="1" y2="0" gradientUnits="userSpaceOnUse" gradientTransform="matrix(37.2401,-12.6,12.6,37.2401,-8335.36,-2360)"><stop offset="0" style="stop-color:rgb(0,59,78);stop-opacity:1"/><stop offset="1" style="stop-color:rgb(123,220,224);stop-opacity:1"/></linearGradient>
        <linearGradient id="_Linear5" x1="0" y1="0" x2="1" y2="0" gradientUnits="userSpaceOnUse" gradientTransform="matrix(37.2401,-12.6,12.6,37.2401,-8335.36,-2360)"><stop offset="0" style="stop-color:rgb(0,59,78);stop-opacity:1"/><stop offset="1" style="stop-color:rgb(123,220,224);stop-opacity:1"/></linearGradient>
        <linearGradient id="_Linear6" x1="0" y1="0" x2="1" y2="0" gradientUnits="userSpaceOnUse" gradientTransform="matrix(37.2401,-12.6,12.6,37.2401,-8335.36,-2360)"><stop offset="0" style="stop-color:rgb(0,59,78);stop-opacity:1"/><stop offset="1" style="stop-color:rgb(123,220,224);stop-opacity:1"/></linearGradient>
    </defs>
</svg>
